<svg width="179" height="162" viewBox="0 0 179 162" fill="none" xmlns="http://www.w3.org/2000/svg">
<path d="M73.971 90.2218H48.338C48.0214 90.2218 47.7079 90.1653 47.4153 90.0557C47.1228 89.946 46.857 89.7853 46.6331 89.5826C46.4092 89.38 46.2316 89.1394 46.1104 88.8747C45.9892 88.6099 45.9269 88.3262 45.9269 88.0396C45.9269 87.753 45.9892 87.4693 46.1104 87.2045C46.2316 86.9398 46.4092 86.6992 46.6331 86.4966C46.857 86.2939 47.1228 86.1332 47.4153 86.0235C47.7079 85.9139 48.0214 85.8574 48.338 85.8574H73.971C74.2876 85.8574 74.6012 85.9139 74.8937 86.0235C75.1862 86.1332 75.452 86.2939 75.6759 86.4966C75.8998 86.6992 76.0774 86.9398 76.1986 87.2045C76.3198 87.4693 76.3821 87.753 76.3821 88.0396C76.3821 88.3262 76.3198 88.6099 76.1986 88.8747C76.0774 89.1394 75.8998 89.38 75.6759 89.5826C75.452 89.7853 75.1862 89.946 74.8937 90.0557C74.6012 90.1653 74.2876 90.2218 73.971 90.2218Z" fill="#054ADA"/>
<path d="M86.113 72.7389L76.4397 89.209C76.1303 89.7144 75.6144 90.09 75.0027 90.2551C74.3909 90.4202 73.7321 90.3618 73.1674 90.0923C72.8867 89.9609 72.6376 89.7804 72.4348 89.5611C72.2319 89.3418 72.0793 89.0881 71.9858 88.8149C71.8923 88.5417 71.8598 88.2544 71.8902 87.9698C71.9205 87.6851 72.0132 87.4087 72.1627 87.1568L81.8648 70.6866C82.0034 70.4182 82.201 70.1782 82.4455 69.9811C82.6901 69.7841 82.9763 69.6342 83.2869 69.5406C83.5975 69.4469 83.9259 69.4115 84.2522 69.4365C84.5784 69.4614 84.8956 69.5463 85.1844 69.6858C85.4732 69.8253 85.7276 70.0166 85.932 70.248C86.1365 70.4794 86.2868 70.7461 86.3736 71.0317C86.4605 71.3174 86.4822 71.6161 86.4374 71.9096C86.3926 72.2031 86.2822 72.4852 86.113 72.7389Z" fill="#054ADA"/>
<path d="M41.4491 55.4634C41.4491 57.0819 40.9188 58.664 39.9252 60.0097C38.9317 61.3554 37.5196 62.4043 35.8674 63.0236C34.2152 63.643 32.3972 63.805 30.6432 63.4893C28.8893 63.1735 27.2782 62.3942 26.0137 61.2497C24.7491 60.1053 23.888 58.6472 23.5391 57.0598C23.1902 55.4725 23.3693 53.8271 24.0536 52.3318C24.738 50.8366 25.8969 49.5586 27.3838 48.6594C28.8708 47.7602 30.6189 47.2803 32.4072 47.2803C34.8053 47.2803 37.1051 48.1424 38.8008 49.6771C40.4965 51.2117 41.4491 53.2931 41.4491 55.4634Z" fill="#054ADA"/>
<path d="M62.1449 76.5328H50.1178L35.7656 70.8177C34.9465 68.9876 33.4505 67.4719 31.5334 66.5294C29.6163 65.587 27.3971 65.2763 25.255 65.6506C23.1128 66.0248 21.1808 67.0607 19.789 68.5812C18.3973 70.1018 17.6322 72.0125 17.6245 73.987V101.316C17.6334 102.647 17.9858 103.958 18.6536 105.144C19.3214 106.331 20.2861 107.359 21.4709 108.148C22.0127 108.688 22.6929 109.098 23.4515 109.343L31.5174 111.941V132.724C31.4472 133.273 31.5062 133.83 31.6905 134.357C31.8748 134.885 32.1803 135.371 32.5869 135.784C32.9935 136.197 33.4921 136.527 34.0498 136.754C34.6075 136.98 35.2118 137.097 35.823 137.097C36.4343 137.097 37.0386 136.98 37.5963 136.754C38.154 136.527 38.6526 136.197 39.0592 135.784C39.4658 135.371 39.7713 134.885 39.9556 134.357C40.1399 133.83 40.1989 133.273 40.1287 132.724V114.799L43.3436 115.864V135.27C43.3436 135.873 43.475 136.471 43.7303 137.029C43.9856 137.587 44.3599 138.094 44.8317 138.521C45.3034 138.948 45.8635 139.287 46.4799 139.518C47.0964 139.749 47.757 139.868 48.4242 139.868C49.0914 139.868 49.7521 139.749 50.3685 139.518C50.9849 139.287 51.545 138.948 52.0168 138.521C52.4886 138.094 52.8628 137.587 53.1181 137.029C53.3735 136.471 53.5049 135.873 53.5049 135.27V112.876C53.5049 112.876 53.5049 112.746 53.5049 112.669C53.5116 111.72 53.1958 110.792 52.6001 110.011C52.0045 109.231 51.1579 108.635 50.1752 108.304L36.024 103.68C36.2761 102.912 36.4113 102.117 36.4258 101.316V79.1826L47.6205 83.5989C48.2855 83.8707 49.021 83.9696 49.7446 83.8847H62.1736C63.2546 83.8847 64.2914 83.496 65.0558 82.8042C65.8202 82.1124 66.2496 81.1741 66.2496 80.1958C66.2496 79.2174 65.8202 78.2791 65.0558 77.5873C64.2914 76.8955 63.2546 76.5069 62.1736 76.5069" fill="#054ADA"/>
<path d="M80.6017 92.3517H41.3629C40.8977 92.3126 40.4286 92.3618 39.9857 92.4962C39.5427 92.6305 39.1356 92.847 38.7903 93.1319C38.445 93.4167 38.1692 93.7636 37.9805 94.1504C37.7918 94.5371 37.6943 94.9553 37.6943 95.3781C37.6943 95.8009 37.7918 96.2191 37.9805 96.6059C38.1692 96.9927 38.445 97.3396 38.7903 97.6244C39.1356 97.9092 39.5427 98.1257 39.9857 98.2601C40.4286 98.3944 40.8977 98.4436 41.3629 98.4046H61.0253C61.0113 98.5342 61.0113 98.6647 61.0253 98.7943V135.086C61.0253 135.995 61.4245 136.867 62.1351 137.511C62.8457 138.154 63.8094 138.515 64.8143 138.515C65.8192 138.515 66.7829 138.154 67.4935 137.511C68.2041 136.867 68.6033 135.995 68.6033 135.086V98.7163C68.6033 98.5864 68.6033 98.4565 68.6033 98.3266H80.6878C81.153 98.3657 81.622 98.3165 82.065 98.1821C82.508 98.0478 82.9151 97.8313 83.2604 97.5465C83.6056 97.2616 83.8814 96.9147 84.0701 96.5279C84.2589 96.1412 84.3563 95.723 84.3563 95.3002C84.3563 94.8774 84.2589 94.4592 84.0701 94.0724C83.8814 93.6857 83.6056 93.3388 83.2604 93.0539C82.9151 92.7691 82.508 92.5526 82.065 92.4182C81.622 92.2839 81.153 92.2347 80.6878 92.2737" fill="#054ADA"/>
<path d="M100.695 90.2218H126.299C126.938 90.2218 127.552 89.9919 128.004 89.5826C128.456 89.1734 128.71 88.6183 128.71 88.0396C128.71 87.4608 128.456 86.9058 128.004 86.4966C127.552 86.0873 126.938 85.8574 126.299 85.8574H100.695C100.055 85.8574 99.442 86.0873 98.9898 86.4966C98.5376 86.9058 98.2836 87.4608 98.2836 88.0396C98.2836 88.6183 98.5376 89.1734 98.9898 89.5826C99.442 89.9919 100.055 90.2218 100.695 90.2218Z" fill="#054ADA"/>
<path d="M88.6676 72.7387L98.341 89.2088C98.6503 89.7142 99.1662 90.0898 99.7779 90.2549C100.39 90.42 101.049 90.3616 101.613 90.0921C101.894 89.9607 102.143 89.7802 102.346 89.5609C102.549 89.3416 102.701 89.0879 102.795 88.8147C102.888 88.5415 102.921 88.2542 102.89 87.9696C102.86 87.6849 102.767 87.4085 102.618 87.1566L92.9158 70.6864C92.7707 70.4323 92.5712 70.207 92.3289 70.0234C92.0865 69.8398 91.8063 69.7017 91.5044 69.617C91.2026 69.5324 90.8851 69.503 90.5706 69.5305C90.256 69.558 89.9507 69.6418 89.6723 69.7771C89.3905 69.9111 89.1409 70.0941 88.9378 70.3158C88.7346 70.5374 88.5819 70.7933 88.4885 71.0686C88.3951 71.3439 88.3629 71.6332 88.3936 71.9198C88.4243 72.2065 88.5175 72.4847 88.6676 72.7387Z" fill="#054ADA"/>
<path d="M133.217 55.4634C133.217 57.0819 133.747 58.664 134.741 60.0097C135.734 61.3554 137.146 62.4043 138.798 63.0236C140.451 63.643 142.269 63.805 144.023 63.4893C145.776 63.1735 147.388 62.3942 148.652 61.2497C149.917 60.1053 150.778 58.6472 151.127 57.0598C151.476 55.4725 151.296 53.8271 150.612 52.3318C149.928 50.8366 148.769 49.5586 147.282 48.6594C145.795 47.7602 144.047 47.2803 142.259 47.2803C139.86 47.2803 137.561 48.1424 135.865 49.6771C134.169 51.2117 133.217 53.2931 133.217 55.4634Z" fill="#054ADA"/>
<path d="M94.0639 92.3517H133.303C133.768 92.3126 134.237 92.3618 134.68 92.4962C135.123 92.6305 135.53 92.847 135.875 93.1319C136.221 93.4167 136.496 93.7636 136.685 94.1504C136.874 94.5372 136.971 94.9553 136.971 95.3781C136.971 95.8009 136.874 96.2191 136.685 96.6059C136.496 96.9927 136.221 97.3396 135.875 97.6244C135.53 97.9092 135.123 98.1257 134.68 98.2601C134.237 98.3944 133.768 98.4436 133.303 98.4046H113.64C113.654 98.5342 113.654 98.6647 113.64 98.7943V135.086C113.47 135.865 113.007 136.567 112.329 137.071C111.651 137.575 110.801 137.851 109.923 137.851C109.046 137.851 108.195 137.575 107.517 137.071C106.839 136.567 106.376 135.865 106.206 135.086V98.7163C106.192 98.5867 106.192 98.4562 106.206 98.3266H94.0639C93.5988 98.3657 93.1297 98.3165 92.6867 98.1821C92.2437 98.0478 91.8366 97.8313 91.4913 97.5465C91.1461 97.2616 90.8703 96.9147 90.6816 96.5279C90.4929 96.1412 90.3954 95.723 90.3954 95.3002C90.3954 94.8774 90.4929 94.4592 90.6816 94.0724C90.8703 93.6857 91.1461 93.3388 91.4913 93.0539C91.8366 92.7691 92.2437 92.5526 92.6867 92.4182C93.1297 92.2839 93.5988 92.2347 94.0639 92.2737" fill="#054ADA"/>
<path d="M164.849 113.136L157.099 96.2503V73.987C157.091 72.0125 156.326 70.1018 154.934 68.5812C153.542 67.0607 151.61 66.0248 149.468 65.6506C147.326 65.2763 145.107 65.587 143.19 66.5294C141.273 67.4719 139.777 68.9876 138.957 70.8177L124.605 76.5328H112.521C111.986 76.5328 111.456 76.6283 110.961 76.8137C110.466 76.999 110.017 77.2708 109.639 77.6133C109.26 77.9559 108.96 78.3625 108.755 78.8101C108.55 79.2576 108.445 79.7373 108.445 80.2218C108.445 80.7062 108.55 81.1859 108.755 81.6334C108.96 82.081 109.26 82.4877 109.639 82.8302C110.017 83.1728 110.466 83.4445 110.961 83.6299C111.456 83.8152 111.986 83.9107 112.521 83.9107H124.95C125.673 83.9956 126.409 83.8967 127.074 83.6249L138.269 79.2086V101.316C138.254 101.532 138.254 101.749 138.269 101.965L124.462 108.304C123.479 108.635 122.633 109.231 122.037 110.011C121.441 110.792 121.125 111.72 121.132 112.669C121.132 112.669 121.132 112.798 121.132 112.876V135.27C121.132 136.489 121.667 137.659 122.62 138.521C123.573 139.383 124.865 139.868 126.213 139.868C127.56 139.868 128.853 139.383 129.805 138.521C130.758 137.659 131.293 136.489 131.293 135.27V115.864L134.537 114.799V132.802C134.467 133.351 134.526 133.908 134.71 134.435C134.894 134.963 135.2 135.449 135.607 135.862C136.013 136.275 136.512 136.605 137.069 136.832C137.627 137.058 138.231 137.175 138.843 137.175C139.454 137.175 140.058 137.058 140.616 136.832C141.174 136.605 141.672 136.275 142.079 135.862C142.485 135.449 142.791 134.963 142.975 134.435C143.16 133.908 143.219 133.351 143.148 132.802V113.136H164.849Z" fill="#054ADA"/>
<path d="M87.3472 48.9165C84.6663 48.9217 82.044 48.2069 79.8122 46.8627C77.5804 45.5185 75.8394 43.6053 74.8096 41.3652C73.7797 39.1251 73.5073 36.6589 74.0269 34.2787C74.5464 31.8984 75.8345 29.7111 77.7281 27.9937C79.6217 26.2763 82.0358 25.1059 84.6647 24.6307C87.2936 24.1554 90.0192 24.3967 92.4966 25.324C94.9739 26.2513 97.0916 27.8229 98.5815 29.8399C100.072 31.8569 100.867 34.2286 100.867 36.6548C100.859 39.9002 99.4334 43.0112 96.9004 45.3084C94.3674 47.6057 90.9331 48.9028 87.3472 48.9165ZM106.436 36.6548C106.43 33.5938 105.527 30.589 103.819 27.9471C102.111 25.3051 99.6589 23.1205 96.7133 21.6162C93.7677 20.1119 90.4338 19.3418 87.052 19.3845C83.6701 19.4272 80.3613 20.2811 77.4631 21.8591C74.565 23.4371 72.1814 25.6827 70.5554 28.3668C68.9295 31.0509 68.1194 34.0773 68.208 37.1372C68.2965 40.1971 69.2805 43.181 71.0594 45.7844C72.8383 48.3878 75.3486 50.5174 78.334 51.956L76.2673 66.3998L87.749 57.7751L98.8576 66.0621L95.9871 52.1638C99.1567 50.7253 101.823 48.5185 103.688 45.7893C105.553 43.0601 106.544 39.9158 106.55 36.7068" fill="#054ADA"/>
<path d="M89.988 33.4079H98.2549V33.4858L91.5668 37.8501L94.1788 45.0981H94.1214L87.3472 40.6558L80.5443 45.0981H80.4869L83.099 37.8501L76.4109 33.4858V33.4079H84.6777L87.2898 26.2119H87.3759L89.988 33.4079Z" fill="#054ADA"/>
</svg>
